<?xml version="1.0" encoding="utf-8"?>
<!-- Generator: Adobe Illustrator 14.0.0, SVG Export Plug-In . SVG Version: 6.00 Build 43363)  -->
<!DOCTYPE svg PUBLIC "-//W3C//DTD SVG 1.1//EN" "http://www.w3.org/Graphics/SVG/1.1/DTD/svg11.dtd">
<svg version="1.1" id="Layer_1" xmlns="http://www.w3.org/2000/svg" xmlns:xlink="http://www.w3.org/1999/xlink" x="0px" y="0px"
	 width="164px" height="210px" viewBox="66.5 -4.5 164 210" enable-background="new 66.5 -4.5 164 210" xml:space="preserve">
<g id="Layer_x0020_1">
	<g id="Layer_x0020_1_0">
		<path id="_118735136" fill="#0051E9" d="M212.411,57.597c0.644,3.827,0.903,8.07,0.903,12.087
			c0,35.861-28.472,65.02-63.941,65.899c0,0,19.537-8.782,40.806-36.889C210.874,71.263,212.411,57.598,212.411,57.597
			L212.411,57.597L212.411,57.597z"/>
		<path id="_119044112" fill="#0051E9" d="M206.115,8.742c-6.169-6.723-23.132,5.334-23.132,5.334
			c7.773,4.972,14.39,11.585,19.47,19.32C202.453,33.395,211.896,15.089,206.115,8.742L206.115,8.742z M212.732,1.98
			c6.746,5.487,6.746,16.9-2.12,40.502c-11.243,29.813-37.785,58.823-51.087,72.527c-14.972,15.396-43.955,35.955-55.909,28.707
			c-10.993-6.702-3.216-26.793-2.506-28.917c6.041-18.208,22.105-41.772,24.355-57.619c2.376-17.215-3.216-21.552-7.842-23.956
			c-2.829-1.485-16.58-5.749-27.825,17.218c-11.247,22.959-1.093,47.932-1.093,47.932c-4.176-8.673-6.49-18.399-6.49-28.69
			c0-36.401,29.305-65.918,65.55-65.918c11.244,0,21.911,2.875,31.167,7.925C178.933,11.69,203.097-5.773,212.732,1.98L212.732,1.98
			L212.732,1.98z"/>
		<polygon id="_119048576" fill="#0051E9" stroke="#0067AC" stroke-width="3.2154" points="88.838,197.417 75.853,171.19 
			82.605,171.19 91.903,189.629 91.993,189.629 100.712,171.19 107.494,171.19 94.924,197.417 		"/>
		<polygon id="_119049056" fill="#0051E9" stroke="#0067AC" stroke-width="3.2154" points="124.493,171.19 140.38,188.785 
			140.467,188.785 140.38,171.19 146.569,171.19 146.569,197.417 139.98,197.417 123.545,179.488 123.472,179.488 123.472,197.417 
			117.282,197.417 117.282,171.19 		"/>
		<path id="_119049464" fill="#0051E9" stroke="#0067AC" stroke-width="3.2154" d="M177.544,183.559c0.755,0,1.482-0.05,2.176-0.147
			c0.694-0.1,1.317-0.291,1.85-0.571c0.518-0.285,0.949-0.683,1.275-1.202c0.326-0.513,0.472-1.194,0.472-2.028
			c0-0.837-0.146-1.514-0.472-2.029c-0.326-0.517-0.756-0.92-1.275-1.198c-0.534-0.284-1.156-0.474-1.85-0.573
			c-0.694-0.1-1.422-0.147-2.176-0.147l-8.736,0v7.896H177.544L177.544,183.559L177.544,183.559z M179.319,171.19h0.176
			c1.804,0.015,3.33,0.254,4.608,0.715c1.315,0.481,2.383,1.11,3.198,1.892c0.828,0.785,1.436,1.684,1.806,2.684
			c0.384,1.009,0.563,2.05,0.563,3.129c0,1.055-0.178,2.091-0.563,3.107c-0.371,1.017-0.978,1.918-1.792,2.702
			c-0.83,0.785-1.897,1.418-3.212,1.894c-1.304,0.479-2.889,0.717-4.769,0.717h-10.527v9.386h-6.603v-26.227L179.319,171.19
			L179.319,171.19L179.319,171.19z"/>
		<polygon id="_119049872" fill="#0051E9" stroke="#0067AC" stroke-width="3.2154" points="196.363,176.715 196.363,171.19 
			223.917,171.19 223.917,176.715 213.243,176.715 213.243,197.417 206.652,197.417 206.652,176.715 		"/>
	</g>
</g>
</svg>
