<?xml version="1.0" encoding="utf-8"?>
<!-- Generator: Adobe Illustrator 14.0.0, SVG Export Plug-In . SVG Version: 6.00 Build 43363)  -->
<!DOCTYPE svg PUBLIC "-//W3C//DTD SVG 1.1//EN" "http://www.w3.org/Graphics/SVG/1.1/DTD/svg11.dtd">
<svg version="1.1" id="Layer_1" xmlns="http://www.w3.org/2000/svg" xmlns:xlink="http://www.w3.org/1999/xlink" x="0px" y="0px"
	 width="167.5px" height="225px" viewBox="0 0 167.5 225" enable-background="new 0 0 167.5 225" xml:space="preserve">
<g id="Layer_x0020_1">
	<path fill="#005197" d="M148.649,62.304c0.696,4.139,0.977,8.729,0.977,13.075c0,38.791-30.799,70.333-69.166,71.285
		c0,0,21.133-9.5,44.14-39.904C146.986,77.087,148.649,62.305,148.649,62.304L148.649,62.304z"/>
	<path fill="#005197" d="M141.839,9.457c-6.673-7.272-25.022,5.77-25.022,5.77c8.408,5.379,15.566,12.532,21.061,20.899
		C137.878,36.125,148.092,16.323,141.839,9.457L141.839,9.457z M148.997,2.143c7.298,5.935,7.298,18.281-2.293,43.812
		c-12.162,32.249-40.873,63.63-55.262,78.454c-16.196,16.654-47.547,38.893-60.478,31.053c-11.891-7.25-3.479-28.983-2.711-31.28
		c6.535-19.696,23.911-45.186,26.346-62.328c2.57-18.622-3.479-23.313-8.483-25.914c-3.06-1.606-17.935-6.218-30.099,18.625
		C3.85,79.4,14.835,106.414,14.835,106.414c-4.518-9.381-7.021-19.903-7.021-31.035c0-39.376,31.7-71.305,70.907-71.305
		c12.163,0,23.702,3.11,33.715,8.573C112.436,12.646,138.574-6.245,148.997,2.143L148.997,2.143z"/>
	<polygon fill="#005197" stroke="#0067AC" stroke-width="0.8952" points="14.978,213.551 0.931,185.181 8.235,185.181 
		18.293,205.127 18.39,205.127 27.823,185.181 35.158,185.181 21.561,213.551 	"/>
	<polygon fill="#005197" stroke="#0067AC" stroke-width="0.8952" points="53.546,185.181 70.732,204.213 70.826,204.213 
		70.732,185.181 77.427,185.181 77.427,213.551 70.299,213.551 52.521,194.157 52.442,194.157 52.442,213.551 45.746,213.551 
		45.746,185.181 	"/>
	<path fill="#005197" stroke="#0067AC" stroke-width="0.8952" d="M110.933,198.56c0.817,0,1.603-0.054,2.354-0.159
		c0.751-0.108,1.425-0.314,2.001-0.618c0.561-0.308,1.026-0.738,1.379-1.3c0.353-0.555,0.511-1.291,0.511-2.194
		c0-0.905-0.158-1.637-0.511-2.195c-0.353-0.559-0.818-0.995-1.379-1.296c-0.577-0.307-1.25-0.512-2.001-0.619
		c-0.751-0.108-1.538-0.16-2.354-0.16h-9.45v8.541H110.933L110.933,198.56z M112.854,185.181h0.19
		c1.951,0.016,3.602,0.274,4.984,0.773c1.423,0.521,2.578,1.201,3.459,2.047c0.896,0.849,1.553,1.821,1.954,2.903
		c0.416,1.091,0.608,2.218,0.608,3.385c0,1.141-0.192,2.262-0.608,3.361c-0.401,1.1-1.058,2.075-1.938,2.923
		c-0.897,0.849-2.052,1.534-3.475,2.048c-1.41,0.519-3.125,0.776-5.158,0.776h-11.388v10.153H94.34v-28.37H112.854z"/>
	<polygon fill="#005197" stroke="#0067AC" stroke-width="0.8952" points="131.29,191.157 131.29,185.181 161.096,185.181 
		161.096,191.157 149.549,191.157 149.549,213.551 142.42,213.551 142.42,191.157 	"/>
</g>
</svg>
